%TF.GenerationSoftware,KiCad,Pcbnew,9.0.7*%
%TF.CreationDate,2026-07-01T13:14:32-04:00*%
%TF.ProjectId,TSSOP-to-8PINHEADER,5453534f-502d-4746-9f2d-3850494e4845,rev?*%
%TF.SameCoordinates,Original*%
%TF.FileFunction,Legend,Top*%
%TF.FilePolarity,Positive*%
%FSLAX46Y46*%
G04 Gerber Fmt 4.6, Leading zero omitted, Abs format (unit mm)*
G04 Created by KiCad (PCBNEW 9.0.7) date 2026-07-01 13:14:32*
%MOMM*%
%LPD*%
G01*
G04 APERTURE LIST*
%ADD10C,0.150000*%
%ADD11C,0.120000*%
G04 APERTURE END LIST*
D10*
X151638095Y-87977819D02*
X151638095Y-88787342D01*
X151638095Y-88787342D02*
X151685714Y-88882580D01*
X151685714Y-88882580D02*
X151733333Y-88930200D01*
X151733333Y-88930200D02*
X151828571Y-88977819D01*
X151828571Y-88977819D02*
X152019047Y-88977819D01*
X152019047Y-88977819D02*
X152114285Y-88930200D01*
X152114285Y-88930200D02*
X152161904Y-88882580D01*
X152161904Y-88882580D02*
X152209523Y-88787342D01*
X152209523Y-88787342D02*
X152209523Y-87977819D01*
X153209523Y-88977819D02*
X152638095Y-88977819D01*
X152923809Y-88977819D02*
X152923809Y-87977819D01*
X152923809Y-87977819D02*
X152828571Y-88120676D01*
X152828571Y-88120676D02*
X152733333Y-88215914D01*
X152733333Y-88215914D02*
X152638095Y-88263533D01*
D11*
%TO.C,U1*%
X150090000Y-89363000D02*
X154710000Y-89363000D01*
X150090000Y-89538000D02*
X150090000Y-89363000D01*
X150090000Y-92583000D02*
X150090000Y-92408000D01*
X154710000Y-89363000D02*
X154710000Y-89538000D01*
X154710000Y-92408000D02*
X154710000Y-92583000D01*
X154710000Y-92583000D02*
X150090000Y-92583000D01*
X149530000Y-89533000D02*
X149290000Y-89203000D01*
X149770000Y-89203000D01*
X149530000Y-89533000D01*
G36*
X149530000Y-89533000D02*
G01*
X149290000Y-89203000D01*
X149770000Y-89203000D01*
X149530000Y-89533000D01*
G37*
%TD*%
M02*
