%TF.GenerationSoftware,KiCad,Pcbnew,9.0.7*%
%TF.CreationDate,2026-07-01T13:14:31-04:00*%
%TF.ProjectId,TSSOP-to-8PINHEADER,5453534f-502d-4746-9f2d-3850494e4845,rev?*%
%TF.SameCoordinates,Original*%
%TF.FileFunction,Copper,L1,Top*%
%TF.FilePolarity,Positive*%
%FSLAX46Y46*%
G04 Gerber Fmt 4.6, Leading zero omitted, Abs format (unit mm)*
G04 Created by KiCad (PCBNEW 9.0.7) date 2026-07-01 13:14:31*
%MOMM*%
%LPD*%
G01*
G04 APERTURE LIST*
G04 Aperture macros list*
%AMRoundRect*
0 Rectangle with rounded corners*
0 $1 Rounding radius*
0 $2 $3 $4 $5 $6 $7 $8 $9 X,Y pos of 4 corners*
0 Add a 4 corners polygon primitive as box body*
4,1,4,$2,$3,$4,$5,$6,$7,$8,$9,$2,$3,0*
0 Add four circle primitives for the rounded corners*
1,1,$1+$1,$2,$3*
1,1,$1+$1,$4,$5*
1,1,$1+$1,$6,$7*
1,1,$1+$1,$8,$9*
0 Add four rect primitives between the rounded corners*
20,1,$1+$1,$2,$3,$4,$5,0*
20,1,$1+$1,$4,$5,$6,$7,0*
20,1,$1+$1,$6,$7,$8,$9,0*
20,1,$1+$1,$8,$9,$2,$3,0*%
G04 Aperture macros list end*
%TA.AperFunction,Conductor*%
%ADD10C,0.400000*%
%TD*%
%TA.AperFunction,SMDPad,CuDef*%
%ADD11RoundRect,0.100000X-0.637500X-0.100000X0.637500X-0.100000X0.637500X0.100000X-0.637500X0.100000X0*%
%TD*%
%TA.AperFunction,ComponentPad*%
%ADD12R,1.700000X1.700000*%
%TD*%
%TA.AperFunction,ComponentPad*%
%ADD13C,1.700000*%
%TD*%
G04 APERTURE END LIST*
D10*
%TO.N,Net-(J2-Pin_2)*%
X157734000Y-90648000D02*
X161290000Y-89154000D01*
%TO.N,Net-(J1-Pin_3)*%
X147574000Y-91298000D02*
X146558000Y-91694000D01*
%TO.N,Net-(J2-Pin_3)*%
X158750000Y-91694000D02*
X161290000Y-91694000D01*
%TO.N,Net-(J2-Pin_1)*%
X155262500Y-89998000D02*
X156464000Y-89998000D01*
%TO.N,Net-(J1-Pin_2)*%
X146558000Y-90648000D02*
X143510000Y-89154000D01*
%TO.N,Net-(J2-Pin_1)*%
X156464000Y-89998000D02*
X161290000Y-86614000D01*
%TO.N,Net-(J1-Pin_4)*%
X149537500Y-91948000D02*
X148082000Y-91948000D01*
%TO.N,Net-(J2-Pin_3)*%
X157480000Y-91298000D02*
X158750000Y-91694000D01*
%TO.N,Net-(J1-Pin_1)*%
X149537500Y-89998000D02*
X148082000Y-89998000D01*
%TO.N,Net-(J2-Pin_4)*%
X157226000Y-91948000D02*
X161290000Y-94234000D01*
%TO.N,Net-(J1-Pin_4)*%
X148082000Y-91948000D02*
X143510000Y-94234000D01*
%TO.N,Net-(J2-Pin_4)*%
X155262500Y-91948000D02*
X157226000Y-91948000D01*
%TO.N,Net-(J1-Pin_3)*%
X149537500Y-91298000D02*
X147574000Y-91298000D01*
X146558000Y-91694000D02*
X143510000Y-91694000D01*
%TO.N,Net-(J1-Pin_2)*%
X149537500Y-90648000D02*
X146558000Y-90648000D01*
%TO.N,Net-(J1-Pin_1)*%
X148082000Y-89998000D02*
X143510000Y-86614000D01*
%TO.N,Net-(J2-Pin_2)*%
X155262500Y-90648000D02*
X157734000Y-90648000D01*
%TO.N,Net-(J2-Pin_3)*%
X155262500Y-91298000D02*
X157480000Y-91298000D01*
%TD*%
D11*
%TO.P,U1,1,A0*%
%TO.N,Net-(J1-Pin_1)*%
X149537500Y-89998000D03*
%TO.P,U1,2,A1*%
%TO.N,Net-(J1-Pin_2)*%
X149537500Y-90648000D03*
%TO.P,U1,3,A2*%
%TO.N,Net-(J1-Pin_3)*%
X149537500Y-91298000D03*
%TO.P,U1,4,GND*%
%TO.N,Net-(J1-Pin_4)*%
X149537500Y-91948000D03*
%TO.P,U1,5,SDA*%
%TO.N,Net-(J2-Pin_4)*%
X155262500Y-91948000D03*
%TO.P,U1,6,SCL*%
%TO.N,Net-(J2-Pin_3)*%
X155262500Y-91298000D03*
%TO.P,U1,7,WP*%
%TO.N,Net-(J2-Pin_2)*%
X155262500Y-90648000D03*
%TO.P,U1,8,VCC*%
%TO.N,Net-(J2-Pin_1)*%
X155262500Y-89998000D03*
%TD*%
D12*
%TO.P,J1,1,Pin_1*%
%TO.N,Net-(J1-Pin_1)*%
X143510000Y-86614000D03*
D13*
%TO.P,J1,2,Pin_2*%
%TO.N,Net-(J1-Pin_2)*%
X143510000Y-89154000D03*
%TO.P,J1,3,Pin_3*%
%TO.N,Net-(J1-Pin_3)*%
X143510000Y-91694000D03*
%TO.P,J1,4,Pin_4*%
%TO.N,Net-(J1-Pin_4)*%
X143510000Y-94234000D03*
%TD*%
D12*
%TO.P,J2,1,Pin_1*%
%TO.N,Net-(J2-Pin_1)*%
X161290000Y-86614000D03*
D13*
%TO.P,J2,2,Pin_2*%
%TO.N,Net-(J2-Pin_2)*%
X161290000Y-89154000D03*
%TO.P,J2,3,Pin_3*%
%TO.N,Net-(J2-Pin_3)*%
X161290000Y-91694000D03*
%TO.P,J2,4,Pin_4*%
%TO.N,Net-(J2-Pin_4)*%
X161290000Y-94234000D03*
%TD*%
M02*
