%TF.GenerationSoftware,KiCad,Pcbnew,9.0.7*%
%TF.CreationDate,2026-07-01T13:14:32-04:00*%
%TF.ProjectId,TSSOP-to-8PINHEADER,5453534f-502d-4746-9f2d-3850494e4845,rev?*%
%TF.SameCoordinates,Original*%
%TF.FileFunction,Legend,Bot*%
%TF.FilePolarity,Positive*%
%FSLAX46Y46*%
G04 Gerber Fmt 4.6, Leading zero omitted, Abs format (unit mm)*
G04 Created by KiCad (PCBNEW 9.0.7) date 2026-07-01 13:14:32*
%MOMM*%
%LPD*%
G01*
G04 APERTURE LIST*
%ADD10C,0.150000*%
%ADD11C,0.120000*%
G04 APERTURE END LIST*
D10*
X143843333Y-83688819D02*
X143843333Y-84403104D01*
X143843333Y-84403104D02*
X143890952Y-84545961D01*
X143890952Y-84545961D02*
X143986190Y-84641200D01*
X143986190Y-84641200D02*
X144129047Y-84688819D01*
X144129047Y-84688819D02*
X144224285Y-84688819D01*
X142843333Y-84688819D02*
X143414761Y-84688819D01*
X143129047Y-84688819D02*
X143129047Y-83688819D01*
X143129047Y-83688819D02*
X143224285Y-83831676D01*
X143224285Y-83831676D02*
X143319523Y-83926914D01*
X143319523Y-83926914D02*
X143414761Y-83974533D01*
X161623333Y-83688819D02*
X161623333Y-84403104D01*
X161623333Y-84403104D02*
X161670952Y-84545961D01*
X161670952Y-84545961D02*
X161766190Y-84641200D01*
X161766190Y-84641200D02*
X161909047Y-84688819D01*
X161909047Y-84688819D02*
X162004285Y-84688819D01*
X161194761Y-83784057D02*
X161147142Y-83736438D01*
X161147142Y-83736438D02*
X161051904Y-83688819D01*
X161051904Y-83688819D02*
X160813809Y-83688819D01*
X160813809Y-83688819D02*
X160718571Y-83736438D01*
X160718571Y-83736438D02*
X160670952Y-83784057D01*
X160670952Y-83784057D02*
X160623333Y-83879295D01*
X160623333Y-83879295D02*
X160623333Y-83974533D01*
X160623333Y-83974533D02*
X160670952Y-84117390D01*
X160670952Y-84117390D02*
X161242380Y-84688819D01*
X161242380Y-84688819D02*
X160623333Y-84688819D01*
D11*
%TO.C,J1*%
X142130000Y-87884000D02*
X142130000Y-95614000D01*
X144890000Y-85234000D02*
X143510000Y-85234000D01*
X144890000Y-86614000D02*
X144890000Y-85234000D01*
X144890000Y-87884000D02*
X142130000Y-87884000D01*
X144890000Y-87884000D02*
X144890000Y-95614000D01*
X144890000Y-95614000D02*
X142130000Y-95614000D01*
%TO.C,J2*%
X159910000Y-87884000D02*
X159910000Y-95614000D01*
X162670000Y-85234000D02*
X161290000Y-85234000D01*
X162670000Y-86614000D02*
X162670000Y-85234000D01*
X162670000Y-87884000D02*
X159910000Y-87884000D01*
X162670000Y-87884000D02*
X162670000Y-95614000D01*
X162670000Y-95614000D02*
X159910000Y-95614000D01*
%TD*%
M02*
